<svg xmlns="http://www.w3.org/2000/svg" viewBox="0 0 1024 1024" width="1024" height="1024" shape-rendering="crispEdges">
  <!-- DreamRealms 图标 (居中放置，缩放到 1024x1024) -->
  <!-- 缩放 22 倍，原始 44x32 -> 968x704，居中 -->
  <g transform="translate(28, 160) scale(22)">
    <!-- 左侧像素块 -->
    <g fill="#115061">
      <rect x="0" y="4" width="6" height="2" />
      <rect x="0" y="6" width="2" height="4" />
    </g>
    <g fill="#0e4758">
      <rect x="2" y="10" width="2" height="6" />
      <rect x="4" y="14" width="2" height="2" />
      <rect x="6" y="16" width="2" height="2" />
      <rect x="8" y="20" width="2" height="2" />
      <rect x="6" y="4" width="4" height="2" />
      <rect x="12" y="6" width="2" height="2" />
      <rect x="16" y="0" width="2" height="6" />
    </g>
    <g fill="#0b3d4e">
      <rect x="18" y="6" width="2" height="2" />
      <rect x="14" y="8" width="2" height="2" />
      <rect x="10" y="18" width="8" height="2" />
      <rect x="6" y="20" width="2" height="8" />
    </g>
    <g fill="#083445">
      <rect x="16" y="10" width="2" height="2" />
      <rect x="8" y="28" width="2" height="2" />
      <rect x="20" y="8" width="2" height="4" />
    </g>
    <g fill="#052a3b">
      <rect x="18" y="12" width="2" height="8" />
      <rect x="10" y="30" width="8" height="2" />
      <rect x="16" y="28" width="2" height="2" />
    </g>
    <g fill="#022031">
      <rect x="18" y="20" width="2" height="8" />
    </g>
    <g fill="#baf0f0">
      <rect x="2" y="6" width="2" height="2" />
      <rect x="4" y="8" width="2" height="2" />
      <rect x="10" y="6" width="2" height="2" />
      <rect x="12" y="8" width="2" height="2" />
      <rect x="20" y="12" width="2" height="2" />
    </g>
    <g fill="#91d9de">
      <rect x="2" y="8" width="2" height="2" />
      <rect x="4" y="10" width="2" height="2" />
      <rect x="10" y="20" width="2" height="2" />
      <rect x="8" y="22" width="2" height="2" />
      <rect x="20" y="14" width="2" height="4" />
    </g>
    <g fill="#68c1cc">
      <rect x="4" y="12" width="2" height="2" />
      <rect x="8" y="24" width="2" height="2" />
      <rect x="20" y="18" width="2" height="4" />
    </g>
    <g fill="#3fa9b9">
      <rect x="8" y="26" width="2" height="2" />
      <rect x="10" y="28" width="2" height="2" />
      <rect x="14" y="28" width="2" height="2" />
      <rect x="16" y="26" width="2" height="2" />
      <rect x="20" y="22" width="2" height="4" />
    </g>
    <g fill="#ede4e9">
      <rect x="4" y="6" width="6" height="2" />
      <rect x="10" y="8" width="2" height="2" />
      <rect x="10" y="10" width="6" height="2" />
      <rect x="6" y="10" width="2" height="2" />
      <rect x="6" y="12" width="4" height="2" />
      <rect x="16" y="12" width="2" height="2" />
      <rect x="10" y="14" width="6" height="2" />
      <rect x="12" y="20" width="2" height="2" />
      <rect x="10" y="22" width="2" height="2" />
      <rect x="16" y="22" width="2" height="2" />
      <rect x="14" y="24" width="2" height="2" />
    </g>
    <g fill="#edc4d9">
      <rect x="6" y="8" width="4" height="2" />
      <rect x="8" y="14" width="2" height="2" />
      <rect x="12" y="28" width="2" height="2" />
    </g>
    <g fill="#edd4e1">
      <rect x="16" y="14" width="2" height="2" />
      <rect x="16" y="24" width="2" height="2" />
      <rect x="14" y="26" width="2" height="2" />
    </g>
    <g fill="#edb4d1">
      <rect x="14" y="20" width="2" height="2" />
      <rect x="12" y="22" width="2" height="2" />
      <rect x="10" y="24" width="2" height="2" />
    </g>
    <g fill="#eda4c9">
      <rect x="8" y="10" width="2" height="2" />
      <rect x="10" y="12" width="6" height="2" />
      <rect x="10" y="16" width="6" height="2" />
      <rect x="16" y="20" width="2" height="2" />
      <rect x="14" y="22" width="2" height="2" />
      <rect x="12" y="24" width="2" height="2" />
      <rect x="10" y="26" width="2" height="2" />
    </g>
    <g fill="#ed94c1">
      <rect x="6" y="14" width="2" height="2" />
      <rect x="8" y="16" width="2" height="2" />
      <rect x="16" y="16" width="2" height="2" />
      <rect x="12" y="26" width="2" height="2" />
    </g>

    <!-- 右侧像素块 (手动镜像，x' = 44 - x - width) -->
    <g fill="#115061">
      <rect x="38" y="4" width="6" height="2" />
      <rect x="42" y="6" width="2" height="4" />
    </g>
    <g fill="#0e4758">
      <rect x="40" y="10" width="2" height="6" />
      <rect x="38" y="14" width="2" height="2" />
      <rect x="36" y="16" width="2" height="2" />
      <rect x="34" y="20" width="2" height="2" />
      <rect x="34" y="4" width="4" height="2" />
      <rect x="30" y="6" width="2" height="2" />
      <rect x="26" y="0" width="2" height="6" />
    </g>
    <g fill="#0b3d4e">
      <rect x="24" y="6" width="2" height="2" />
      <rect x="28" y="8" width="2" height="2" />
      <rect x="26" y="18" width="8" height="2" />
      <rect x="36" y="20" width="2" height="8" />
    </g>
    <g fill="#083445">
      <rect x="26" y="10" width="2" height="2" />
      <rect x="34" y="28" width="2" height="2" />
      <rect x="22" y="8" width="2" height="4" />
    </g>
    <g fill="#052a3b">
      <rect x="24" y="12" width="2" height="8" />
      <rect x="26" y="30" width="8" height="2" />
      <rect x="26" y="28" width="2" height="2" />
    </g>
    <g fill="#022031">
      <rect x="24" y="20" width="2" height="8" />
    </g>
    <g fill="#baf0f0">
      <rect x="40" y="6" width="2" height="2" />
      <rect x="38" y="8" width="2" height="2" />
      <rect x="32" y="6" width="2" height="2" />
      <rect x="30" y="8" width="2" height="2" />
      <rect x="22" y="12" width="2" height="2" />
    </g>
    <g fill="#91d9de">
      <rect x="40" y="8" width="2" height="2" />
      <rect x="38" y="10" width="2" height="2" />
      <rect x="32" y="20" width="2" height="2" />
      <rect x="34" y="22" width="2" height="2" />
      <rect x="22" y="14" width="2" height="4" />
    </g>
    <g fill="#68c1cc">
      <rect x="38" y="12" width="2" height="2" />
      <rect x="34" y="24" width="2" height="2" />
      <rect x="22" y="18" width="2" height="4" />
    </g>
    <g fill="#3fa9b9">
      <rect x="34" y="26" width="2" height="2" />
      <rect x="32" y="28" width="2" height="2" />
      <rect x="28" y="28" width="2" height="2" />
      <rect x="26" y="26" width="2" height="2" />
      <rect x="22" y="22" width="2" height="4" />
    </g>
    <g fill="#ede4e9">
      <rect x="34" y="6" width="6" height="2" />
      <rect x="32" y="8" width="2" height="2" />
      <rect x="28" y="10" width="6" height="2" />
      <rect x="36" y="10" width="2" height="2" />
      <rect x="34" y="12" width="4" height="2" />
      <rect x="26" y="12" width="2" height="2" />
      <rect x="28" y="14" width="6" height="2" />
      <rect x="30" y="20" width="2" height="2" />
      <rect x="32" y="22" width="2" height="2" />
      <rect x="26" y="22" width="2" height="2" />
      <rect x="28" y="24" width="2" height="2" />
    </g>
    <g fill="#edc4d9">
      <rect x="34" y="8" width="4" height="2" />
      <rect x="34" y="14" width="2" height="2" />
      <rect x="30" y="28" width="2" height="2" />
    </g>
    <g fill="#edd4e1">
      <rect x="26" y="14" width="2" height="2" />
      <rect x="26" y="24" width="2" height="2" />
      <rect x="28" y="26" width="2" height="2" />
    </g>
    <g fill="#edb4d1">
      <rect x="28" y="20" width="2" height="2" />
      <rect x="30" y="22" width="2" height="2" />
      <rect x="32" y="24" width="2" height="2" />
    </g>
    <g fill="#eda4c9">
      <rect x="34" y="10" width="2" height="2" />
      <rect x="28" y="12" width="6" height="2" />
      <rect x="28" y="16" width="6" height="2" />
      <rect x="26" y="20" width="2" height="2" />
      <rect x="28" y="22" width="2" height="2" />
      <rect x="30" y="24" width="2" height="2" />
      <rect x="32" y="26" width="2" height="2" />
    </g>
    <g fill="#ed94c1">
      <rect x="36" y="14" width="2" height="2" />
      <rect x="34" y="16" width="2" height="2" />
      <rect x="26" y="16" width="2" height="2" />
      <rect x="30" y="26" width="2" height="2" />
    </g>
  </g>
</svg>
